<svg xmlns="http://www.w3.org/2000/svg" version="1.1" xmlns:xlink="http://www.w3.org/1999/xlink" xmlns:svgjs="http://svgjs.dev/svgjs" width="1500" height="1500" viewBox="0 0 1500 1500"><rect width="1500" height="1500" fill="#ffffff"></rect><g transform="matrix(0.6666666666666666,0,0,0.6666666666666666,249.20111378916215,635.4637666666667)"><svg viewBox="0 0 296 68" data-background-color="#ffffff" preserveAspectRatio="xMidYMid meet" height="344" width="1500" xmlns="http://www.w3.org/2000/svg" xmlns:xlink="http://www.w3.org/1999/xlink"><g id="tight-bounds" transform="matrix(1,0,0,1,0.23647031840800992,-0.038675000000012005)"><svg viewBox="0 0 295.527059363184 68.07735" height="68.07735" width="295.527059363184"><g><svg viewBox="0 0 295.527059363184 68.07735" height="68.07735" width="295.527059363184"><g><svg viewBox="0 0 295.527059363184 68.07735" height="68.07735" width="295.527059363184"><g id="textblocktransform"><svg viewBox="0 0 295.527059363184 68.07735" height="68.07735" width="295.527059363184" id="textblock"><g><svg viewBox="0 0 295.527059363184 68.07735" height="68.07735" width="295.527059363184"><g><svg><g></g><g></g></svg></g><g><svg><g><svg></svg></g><g></g></svg></g><g id="text-0"><svg viewBox="0 0 295.527059363184 68.07735" height="68.07735" width="295.527059363184"><g transform="matrix(1,0,0,1,0,13.763674999999992)"><svg width="57.7" viewBox="3.25 -31.95 57.7 40.55" height="40.55000000000001" data-palette-color="#ffffff"><path d="M7.28 0L3.25 0 4.48-31.95 10.9-31.95 18.48-8.85 18.82-8.85 26.4-31.95 32.85-31.95 34.08 0 30.05 0 29.6-13.48 29.18-27.63 28.73-27.63 20.83-3.68 16.5-3.68 8.6-27.63 8.15-27.63 7.7-13.45 7.28 0ZM49.27-3.78L51.6-3.78 49.47-2.85 56.77-24.4 60.95-24.4 49.47 8.6 45.37 8.6 49.22-2.55 51-1 46.4-1 38.42-24.4 42.62-24.4 49.27-3.78Z" opacity="1" transform="matrix(1,0,0,1,0,0)" fill="#ffffff" class="undefined-yy-0"></path></svg></g><g><svg xmlns="http://www.w3.org/2000/svg" xmlns:xlink="http://www.w3.org/1999/xlink" version="1.1" x="73.77265" y="0" viewBox="27.900000000000006 23.1 44.5 54.01831378686635" enable-background="new 0 0 100 100" xml:space="preserve" height="68.07735" width="56.08175936318394" class="icon-cg-0" data-fill-palette-color="accent" id="cg-0"><g fill="#ffffff" data-fill-palette-color="accent"><path d="M72.4 74.4c-5.9 3.8-38.5 3.6-44.5-0.5 1.8-2.801 4.3-5 7.4-6.4l5.5-2.5c1.5-0.7 2.4-2.1 2.4-3.7V58c0-0.7-0.3-1.3-0.8-1.8l0 0c-1.5-1.5-2.4-3.4-2.7-5.4l-0.2-1.5c-1.713 0-2.5-3.007-2.5-4.6 0-1.5 0.7-2.1 1.6-2.2L38 37.7c-1-7.5 2.7-14.6 12.1-14.6 0 0 6 0.2 6 2.7 5.5 0 6.2 7.7 5.7 11.9l-0.6 4.8c0.899 0.1 1.6 0.7 1.6 2.2 0 1.579-0.777 4.6-2.5 4.6l-0.2 1.5c-0.3 2-1.199 3.9-2.699 5.4l0 0C56.9 56.7 56.6 57.3 56.6 58v3.3c0 1.601 1 3.101 2.4 3.7l5.5 2.5C68 69 70.6 71.4 72.4 74.4z" fill="#ffffff" data-fill-palette-color="accent"></path></g></svg></g><g transform="matrix(1,0,0,1,145.92705936318396,7.451174999999996)"><svg width="149.60000000000002" viewBox="3.78 -33.48 149.58 34.029999999999994" height="34.025000000000006" data-palette-color="#ffffff"><path d="M7.93 0L3.78 0 3.78-31.95 7.93-31.95 7.93 0ZM22.6-13.38L6.13-13.38 6.13-16.85 22.6-16.85 22.6-13.38ZM22.98-28.48L4.98-28.48 4.98-31.95 22.98-31.95 22.98-28.48ZM32.17-14.93L32.17-14.93 31.25-18.05 32.25-18.1Q33.05-21.2 35-22.99 36.95-24.78 40.17-24.78L40.17-24.78Q40.97-24.78 41.61-24.65 42.25-24.53 42.75-24.35L42.75-24.35 43-20.43Q42.37-20.63 41.61-20.75 40.85-20.88 39.92-20.88L39.92-20.88Q37.17-20.88 35.14-19.35 33.1-17.82 32.17-14.93ZM32.37 0L28.32 0 28.32-24.4 32.27-24.4 32.07-17.2 32.37-16.9 32.37 0ZM51.09 0L47.05 0 47.05-24.4 51.09-24.4 51.09 0ZM49.07-28.4L49.07-28.4Q47.82-28.4 47.21-29.06 46.59-29.73 46.59-30.88L46.59-30.88 46.59-31Q46.59-32.18 47.21-32.83 47.82-33.48 49.07-33.48L49.07-33.48Q50.32-33.48 50.95-32.83 51.57-32.18 51.57-31L51.57-31 51.57-30.88Q51.57-29.7 50.95-29.05 50.32-28.4 49.07-28.4ZM68.04 0.55L68.04 0.55Q62.47 0.55 59.64-2.18 56.82-4.9 56.82-9.98L56.82-9.98 56.82-14.33Q56.82-19.48 59.44-22.26 62.07-25.05 67.12-25.05L67.12-25.05Q70.52-25.05 72.79-23.79 75.07-22.53 76.22-20.2 77.37-17.88 77.37-14.65L77.37-14.65 77.37-13.75Q77.37-12.95 77.31-12.15 77.24-11.35 77.14-10.58L77.14-10.58 73.42-10.58Q73.47-11.78 73.48-12.85 73.49-13.93 73.49-14.83L73.49-14.83Q73.49-17.05 72.78-18.59 72.07-20.13 70.66-20.94 69.24-21.75 67.12-21.75L67.12-21.75Q63.97-21.75 62.39-19.93 60.82-18.1 60.82-14.7L60.82-14.7 60.82-12.38 60.84-11.88 60.84-9.55Q60.84-8.03 61.29-6.8 61.74-5.58 62.71-4.69 63.67-3.8 65.16-3.34 66.64-2.88 68.69-2.88L68.69-2.88Q71.07-2.88 73.12-3.5 75.17-4.13 76.97-5.2L76.97-5.2 76.59-1.7Q74.97-0.68 72.82-0.06 70.67 0.55 68.04 0.55ZM76.29-10.58L58.94-10.58 58.94-13.63 76.29-13.63 76.29-10.58ZM103.14 0L99.09 0 99.09-15.18Q99.09-17.15 98.55-18.57 98.02-20 96.8-20.79 95.59-21.58 93.49-21.58L93.49-21.58Q91.56-21.58 90.15-20.85 88.74-20.13 87.87-18.89 86.99-17.65 86.64-16.07L86.64-16.07 85.92-18.95 86.79-18.95Q87.19-20.6 88.19-21.96 89.19-23.33 90.88-24.14 92.56-24.95 95.02-24.95L95.02-24.95Q97.92-24.95 99.7-23.85 101.49-22.75 102.31-20.69 103.14-18.63 103.14-15.63L103.14-15.63 103.14 0ZM86.81 0L82.77 0 82.77-24.4 86.81-24.4 86.64-18.55 86.81-18.32 86.81 0ZM117.46 0.53L117.46 0.53Q113.06 0.53 110.76-2.2 108.46-4.93 108.46-10.15L108.46-10.15 108.46-14.18Q108.46-19.43 110.79-22.19 113.11-24.95 117.64-24.95L117.64-24.95Q119.89-24.95 121.54-24.19 123.19-23.43 124.21-22.05 125.24-20.68 125.59-18.8L125.59-18.8 126.91-18.8 125.71-15.08Q125.64-17.23 124.75-18.69 123.86-20.15 122.35-20.9 120.84-21.65 118.89-21.65L118.89-21.65Q115.79-21.65 114.15-19.85 112.51-18.05 112.51-14.55L112.51-14.55 112.51-9.9Q112.51-6.45 114.15-4.65 115.79-2.85 118.89-2.85L118.89-2.85Q120.74-2.85 122.16-3.56 123.59-4.28 124.53-5.54 125.46-6.8 125.81-8.4L125.81-8.4 126.81-5.5 125.61-5.5Q125.26-3.85 124.28-2.48 123.29-1.1 121.63-0.29 119.96 0.53 117.46 0.53ZM129.66 0L125.61 0 125.79-5.9 125.71-7.2 125.71-17.4 125.74-18.25 125.64-25.18 125.64-33.13 129.66-33.13 129.66 0ZM143.89 0.55L143.89 0.55Q140.94 0.55 138.74-0.09 136.53-0.73 135.09-1.48L135.09-1.48 134.71-5.23Q136.53-4.28 138.72-3.58 140.91-2.88 143.69-2.88L143.69-2.88Q146.51-2.88 147.94-3.78 149.36-4.67 149.36-6.45L149.36-6.45 149.36-6.73Q149.36-7.88 148.82-8.63 148.28-9.38 146.89-9.95 145.49-10.53 142.91-11.1L142.91-11.1Q139.84-11.78 138.06-12.69 136.28-13.6 135.52-14.95 134.76-16.3 134.76-18.25L134.76-18.25 134.76-18.48Q134.76-21.68 136.99-23.33 139.21-24.98 143.69-24.98L143.69-24.98Q146.56-24.98 148.67-24.33 150.78-23.68 152.14-22.88L152.14-22.88 152.51-19.45Q150.89-20.4 148.78-21.03 146.69-21.65 144.06-21.65L144.06-21.65Q142.16-21.65 140.99-21.26 139.81-20.88 139.28-20.16 138.76-19.45 138.76-18.45L138.76-18.45 138.76-18.25Q138.76-17.15 139.28-16.39 139.81-15.63 141.17-15.06 142.53-14.5 144.96-13.98L144.96-13.98Q148.09-13.35 149.92-12.48 151.76-11.6 152.56-10.26 153.36-8.93 153.36-6.83L153.36-6.83 153.36-6.4Q153.36-2.95 150.96-1.2 148.56 0.55 143.89 0.55Z" opacity="1" transform="matrix(1,0,0,1,0,0)" fill="#ffffff" class="undefined-yy-1"></path></svg></g></svg></g></svg></g></svg></g></svg></g></svg></g><defs></defs></svg><rect width="295.527059363184" height="68.07735" fill="none" stroke="none" visibility="hidden"></rect></g></svg></g></svg>